# Blender v2.64 (sub 0) OBJ File: 'SUSHI.blend'
# www.blender.org
mtllib sushi_m.mtl
o maguro001_Cube004
v 0.135120 0.577431 -0.007990
v -0.074443 0.577431 -0.007753
v -0.105581 0.593386 -0.159806
v 0.126824 0.593386 -0.157671
v 0.134947 0.555219 -0.179668
v -0.115241 0.555219 -0.182299
v -0.110477 0.533919 0.007348
v 0.143093 0.526986 0.005498
v -0.149642 0.558832 -0.037495
v -0.172954 0.556961 -0.133758
v -0.172954 0.483151 -0.133758
v -0.169667 0.483151 -0.024028
v 0.172727 0.556961 -0.013187
v -0.128294 0.561428 -0.040241
v -0.137285 0.492291 -0.000259
v 0.154610 0.497184 -0.000219
v 0.160596 0.585097 -0.034275
v 0.160596 0.585097 -0.123511
v -0.132688 0.585097 -0.123511
v -0.117523 0.583298 -0.054295
v -0.144818 0.556961 -0.157527
v 0.172727 0.556961 -0.157527
v 0.172727 0.493895 -0.157527
v -0.144818 0.500646 -0.157527
v -0.132688 0.455015 -0.034275
v -0.132688 0.455015 -0.123511
v 0.160596 0.455015 -0.123511
v 0.160596 0.455015 -0.034275
v 0.200863 0.556961 -0.133758
v 0.200863 0.556961 -0.024028
v 0.190519 0.483151 -0.038995
v 0.191116 0.483151 -0.123167
v -0.075455 0.614423 -0.116966
v 0.116059 0.614423 -0.116590
v -0.071597 0.608040 -0.055383
v 0.121253 0.614423 -0.044236
v 0.207609 0.558512 -0.003280
v 0.206627 0.558906 -0.150601
v 0.214007 0.522401 -0.164240
v 0.220521 0.522401 0.009212
v 0.202329 0.578727 -0.119016
v 0.204354 0.580126 -0.054599
v -0.214726 0.555532 -0.038880
v -0.184025 0.555532 -0.165318
v -0.183163 0.516700 -0.175932
v -0.196275 0.527009 -0.005354
v -0.192394 0.573948 -0.121738
v -0.201776 0.573948 -0.055777
v -0.259391 0.497597 -0.157935
v -0.259391 0.483890 -0.043865
v -0.232784 0.470232 -0.047516
v -0.232784 0.470232 -0.167696
v -0.274055 0.512679 -0.130035
v -0.274055 0.512679 -0.069449
v -0.323361 0.477925 -0.146081
v -0.338325 0.490167 -0.063217
v -0.296265 0.459316 -0.056466
v -0.300338 0.454821 -0.151672
v -0.397194 0.479270 -0.057369
v -0.379376 0.465961 -0.128554
v -0.363699 0.439641 -0.061878
v -0.363699 0.439641 -0.135096
vt 0.728002 0.451786
vt 0.742815 0.419515
vt 0.846241 0.456422
vt 0.808751 0.475790
vt 0.941446 0.617217
vt 0.949754 0.636460
vt 0.894835 0.637259
vt 0.898510 0.600667
vt 0.905369 0.495759
vt 0.867230 0.425119
vt 0.905915 0.456154
vt 0.753868 0.589251
vt 0.774758 0.551364
vt 0.904389 0.528331
vt 0.986221 0.364961
vt 0.968111 0.368901
vt 0.965394 0.333500
vt 0.983884 0.329994
vt 0.398519 0.631510
vt 0.525629 0.649247
vt 0.488806 0.700842
vt 0.430839 0.701760
vt 0.354176 0.922022
vt 0.361197 0.665554
vt 0.407677 0.714064
vt 0.395555 0.880089
vt 0.554137 0.682562
vt 0.549893 0.932400
vt 0.503215 0.890563
vt 0.513578 0.711320
vt 0.435051 0.726547
vt 0.481068 0.727828
vt 0.474783 0.875904
vt 0.428355 0.874786
vt 0.512233 0.965517
vt 0.381329 0.956602
vt 0.427139 0.899811
vt 0.477795 0.899129
vt 0.791507 0.511792
vt 0.903875 0.572350
vt 0.924703 0.501924
vt 0.928322 0.574372
vt 0.945973 0.630381
vt 0.935742 0.465006
vt 0.962120 0.510980
vt 0.977945 0.620809
vt 0.985164 0.377079
vt 0.968313 0.379800
vt 0.945867 0.587466
vt 0.940822 0.477519
vt 0.939139 0.506810
vt 0.943034 0.555625
vt 0.714613 0.496561
vt 0.645121 0.474069
vt 0.667236 0.423261
vt 0.965651 0.321289
vt 0.982334 0.319222
vt 0.696301 0.534395
vt 0.782021 0.390427
vt 0.688846 0.558579
vt 0.595485 0.505274
vt 0.600277 0.468768
vt 0.631085 0.503945
vt 0.625344 0.530927
vt 0.694735 0.392988
vt 0.712386 0.366835
vt 0.969232 0.311371
vt 0.980924 0.309824
vt 0.574207 0.388451
vt 0.597390 0.355297
vt 0.647371 0.360111
vt 0.616648 0.401394
vt 0.969519 0.302249
vt 0.978744 0.300343
vt 0.570231 0.477227
vt 0.574462 0.451610
vt 0.969434 0.292358
vt 0.976558 0.291442
vt 0.586495 0.392547
vt 0.580638 0.661317
vt 0.606291 0.578823
vt 0.653286 0.563963
vt 0.620758 0.655013
vt 0.000000 0.000000
vn -0.230234 0.801192 0.552344
vn 0.312954 0.461198 -0.830275
vn 0.008637 0.288731 0.957371
vn 0.008533 0.503397 -0.864013
vn -0.029384 0.776371 0.629591
vn -0.013441 -0.991351 -0.130547
vn -0.981764 0.142815 0.125475
vn -0.042364 0.387203 0.921021
vn 0.000000 0.000000 -1.000000
vn -0.000000 -1.000000 0.000000
vn 0.990848 -0.134945 0.003052
vn -0.645330 0.000000 -0.763904
vn -0.588783 -0.808233 0.009728
vn -0.408068 0.386947 0.826893
vn 0.005386 -0.650237 0.759713
vn 0.587689 -0.137148 0.797378
vn 0.767090 -0.103614 -0.633117
vn -0.006931 -0.627058 -0.778941
vn 0.681498 -0.731816 0.002347
vn -0.313882 -0.660836 0.681743
vn -0.243855 -0.620461 -0.745361
vn 0.585974 -0.629382 -0.510405
vn 0.553806 -0.474145 0.684460
vn 0.002657 0.893698 -0.448662
vn -0.018047 0.998645 0.048809
vn 0.996860 0.072023 -0.032903
vn 0.975274 0.220918 -0.005911
vn 0.979717 0.200298 -0.005996
vn 0.944853 0.325568 -0.035485
vn -0.224127 -0.972228 -0.067377
vn 0.366631 0.841374 -0.397079
vn -0.009101 0.285457 0.958348
vn 0.297988 0.819204 0.490008
vn 0.379850 0.924577 -0.029504
vn -0.618122 0.784746 -0.045827
vn 0.284195 -0.958499 -0.022657
vn -0.338146 0.885361 -0.319049
vn -0.289380 0.956562 0.035335
vn -0.225617 0.582303 0.781038
vn -0.217242 0.406405 -0.887492
vn -0.225564 0.073681 -0.971438
vn -0.268495 0.179857 -0.946342
vn -0.523892 0.693903 -0.494000
vn -0.534319 0.027579 0.844833
vn 0.757300 -0.650556 0.057218
vn -0.652673 0.493583 0.574799
vn -0.003376 0.028199 0.999597
vn -0.438463 0.890467 -0.121730
vn 0.197816 -0.980097 0.016711
vn -0.140876 0.616602 0.774568
vn -0.183517 -0.216331 0.958917
vn -0.278384 0.017758 -0.960306
vn -0.335792 0.743446 -0.578387
vn 0.259004 -0.965679 0.019506
vn -0.231269 0.950637 -0.206891
vn -0.804460 -0.592324 -0.044674
vn -0.003556 0.999925 0.011689
vn -0.574704 0.807437 0.133274
vn -0.063793 0.572646 0.817317
vn 0.572772 0.819715 0.000000
vn 0.000000 0.770565 -0.637361
vn 0.045624 0.524052 0.850464
vn -0.412769 0.768688 -0.488611
vn 0.412769 0.768688 -0.488611
vn 0.273348 0.649589 0.709447
usemtl sushi_m
# s off
f 48/1/1 43/2/1 2/3/1
f 48/1/1 2/3/1 35/4/1
f 38/5/2 39/6/2 5/7/2
f 38/5/2 5/7/2 4/8/2
f 1/9/3 2/3/3 7/10/3
f 1/9/3 7/10/3 8/11/3
f 5/7/4 6/12/4 3/13/4
f 5/7/4 3/13/4 4/8/4
f 2/3/5 1/9/5 36/14/5
f 2/3/5 36/14/5 35/4/5
f 5/15/6 8/16/6 7/17/6
f 5/15/6 7/17/6 6/18/6
f 9/19/7 10/20/7 11/21/7
f 9/19/7 11/21/7 12/22/7
f 13/23/8 14/24/8 15/25/8
f 13/23/8 15/25/8 16/26/8
f 21/27/9 22/28/9 23/29/9
f 21/27/9 23/29/9 24/30/9
f 25/31/10 26/32/10 27/33/10
f 25/31/10 27/33/10 28/34/10
f 29/35/11 30/36/11 31/37/11
f 29/35/11 31/37/11 32/38/11
f 21/27/12 24/30/12 11/21/12
f 21/27/12 11/21/12 10/20/12
f 26/32/13 25/31/13 12/22/13
f 26/32/13 12/22/13 11/21/13
f 15/25/14 14/24/14 9/19/14
f 15/25/14 9/19/14 12/22/14
f 25/31/15 28/34/15 16/26/15
f 25/31/15 16/26/15 15/25/15
f 31/37/16 30/36/16 13/23/16
f 31/37/16 13/23/16 16/26/16
f 29/35/17 32/38/17 23/29/17
f 29/35/17 23/29/17 22/28/17
f 27/33/18 26/32/18 24/30/18
f 27/33/18 24/30/18 23/29/18
f 32/38/19 31/37/19 28/34/19
f 32/38/19 28/34/19 27/33/19
f 15/25/20 12/22/20 25/31/20
f 26/32/21 11/21/21 24/30/21
f 27/33/22 23/29/22 32/38/22
f 31/37/23 16/26/23 28/34/23
f 4/8/24 3/13/24 33/39/24
f 4/8/24 33/39/24 34/40/24
f 34/40/25 33/39/25 35/4/25
f 34/40/25 35/4/25 36/14/25
f 41/41/26 42/42/26 37/43/26
f 38/44/27 41/41/27 37/43/27
f 39/45/28 38/44/28 37/43/28
f 40/46/29 39/45/29 37/43/29
f 8/16/30 5/15/30 39/47/30
f 8/16/30 39/47/30 40/48/30
f 41/49/31 38/5/31 4/8/31
f 41/49/31 4/8/31 34/40/31
f 1/9/32 8/11/32 40/50/32
f 1/9/32 40/50/32 37/51/32
f 36/14/33 1/9/33 37/51/33
f 36/14/33 37/51/33 42/52/33
f 42/52/34 41/49/34 34/40/34
f 42/52/34 34/40/34 36/14/34
f 48/1/35 47/53/35 53/54/35
f 48/1/35 53/54/35 54/55/35
f 6/18/36 7/17/36 46/56/36
f 6/18/36 46/56/36 45/57/36
f 33/39/37 3/13/37 44/58/37
f 33/39/37 44/58/37 47/53/37
f 35/4/38 33/39/38 47/53/38
f 35/4/38 47/53/38 48/1/38
f 43/2/39 46/59/39 7/10/39
f 43/2/39 7/10/39 2/3/39
f 45/60/40 44/58/40 3/13/40
f 45/60/40 3/13/40 6/12/40
f 58/61/41 55/62/41 49/63/41
f 58/61/41 49/63/41 52/64/41
f 52/64/42 49/63/42 44/58/42
f 52/64/42 44/58/42 45/60/42
f 47/53/43 44/58/43 49/63/43
f 47/53/43 49/63/43 53/54/43
f 50/65/44 51/66/44 46/59/44
f 50/65/44 46/59/44 43/2/44
f 45/57/45 46/56/45 51/67/45
f 45/57/45 51/67/45 52/68/45
f 54/55/46 50/65/46 43/2/46
f 54/55/46 43/2/46 48/1/46
f 59/69/47 61/70/47 57/71/47
f 59/69/47 57/71/47 56/72/47
f 54/55/48 53/54/48 55/62/48
f 54/55/48 55/62/48 56/72/48
f 52/68/49 51/67/49 57/73/49
f 52/68/49 57/73/49 58/74/49
f 56/72/50 50/65/50 54/55/50
f 56/72/51 57/71/51 51/66/51
f 56/72/51 51/66/51 50/65/51
f 62/75/52 60/76/52 55/62/52
f 62/75/52 55/62/52 58/61/52
f 53/54/53 49/63/53 55/62/53
f 58/74/54 57/73/54 61/77/54
f 58/74/54 61/77/54 62/78/54
f 56/72/55 55/62/55 60/76/55
f 56/72/55 60/76/55 59/79/55
f 62/80/56 61/81/56 59/82/56
f 62/80/56 59/82/56 60/83/56
usemtl _NONE
f 17/84/57 18/84/57 19/84/57
f 17/84/57 19/84/57 20/84/57
f 20/84/58 19/84/58 10/84/58
f 20/84/58 10/84/58 9/84/58
f 17/84/59 20/84/59 14/84/59
f 17/84/59 14/84/59 13/84/59
f 30/84/60 29/84/60 18/84/60
f 30/84/60 18/84/60 17/84/60
f 22/84/61 21/84/61 19/84/61
f 22/84/61 19/84/61 18/84/61
f 14/84/62 20/84/62 9/84/62
f 21/84/63 10/84/63 19/84/63
f 22/84/64 18/84/64 29/84/64
f 30/84/65 17/84/65 13/84/65
o maguro_Cube001
v 0.257519 0.571467 0.180504
v 0.047956 0.571467 0.180742
v 0.016818 0.587423 0.028689
v 0.249223 0.587423 0.030823
v 0.257346 0.549256 0.008827
v 0.007158 0.549256 0.006195
v 0.011922 0.527956 0.195843
v 0.265492 0.521023 0.193993
v -0.027243 0.552868 0.150999
v -0.050555 0.550997 0.054736
v -0.050555 0.477188 0.054736
v -0.047268 0.477188 0.164467
v 0.295126 0.550997 0.175307
v -0.005895 0.555465 0.148254
v -0.014886 0.486328 0.188235
v 0.277008 0.491221 0.188275
v 0.282995 0.579134 0.154219
v 0.282995 0.579134 0.064983
v -0.010289 0.579134 0.064983
v 0.004876 0.577335 0.134200
v -0.022419 0.550997 0.030967
v 0.295126 0.550997 0.030967
v 0.295126 0.487931 0.030967
v -0.022419 0.494683 0.030967
v -0.010289 0.449052 0.154219
v -0.010289 0.449052 0.064983
v 0.282995 0.449052 0.064983
v 0.282995 0.449052 0.154219
v 0.323262 0.550997 0.054736
v 0.323262 0.550997 0.164467
v 0.312918 0.477188 0.149499
v 0.313515 0.477188 0.065327
v 0.046944 0.608460 0.071528
v 0.238458 0.608460 0.071904
v 0.050801 0.602077 0.133111
v 0.243652 0.608460 0.144259
v 0.330008 0.552549 0.185215
v 0.329026 0.552943 0.037893
v 0.336406 0.516438 0.024255
v 0.342920 0.516438 0.197707
v 0.324728 0.572764 0.069478
v 0.326753 0.574163 0.133895
v -0.092327 0.549569 0.149615
v -0.061626 0.549569 0.023176
v -0.060764 0.510736 0.012563
v -0.073876 0.521046 0.183140
v -0.069995 0.567985 0.066756
v -0.079377 0.567985 0.132717
v -0.136992 0.491633 0.030559
v -0.136992 0.477927 0.144630
v -0.110385 0.464268 0.140978
v -0.110385 0.464268 0.020798
v -0.151656 0.506716 0.058460
v -0.151656 0.506716 0.119045
v -0.200962 0.471962 0.042413
v -0.215926 0.484204 0.125277
v -0.173866 0.453352 0.132029
v -0.177939 0.448858 0.036823
v -0.274795 0.473307 0.131125
v -0.256977 0.459998 0.059941
v -0.241300 0.433678 0.126617
v -0.241300 0.433678 0.053399
vt 0.728002 0.451786
vt 0.742815 0.419515
vt 0.846241 0.456422
vt 0.808751 0.475790
vt 0.941446 0.617217
vt 0.949754 0.636460
vt 0.894835 0.637259
vt 0.898510 0.600667
vt 0.905369 0.495759
vt 0.867230 0.425119
vt 0.905915 0.456154
vt 0.753868 0.589251
vt 0.774758 0.551364
vt 0.904389 0.528331
vt 0.986221 0.364961
vt 0.968111 0.368901
vt 0.965394 0.333500
vt 0.983884 0.329994
vt 0.398519 0.631510
vt 0.525629 0.649247
vt 0.488806 0.700842
vt 0.430839 0.701760
vt 0.354176 0.922022
vt 0.361197 0.665554
vt 0.407677 0.714064
vt 0.395555 0.880089
vt 0.554137 0.682562
vt 0.549893 0.932400
vt 0.503215 0.890563
vt 0.513578 0.711320
vt 0.435051 0.726547
vt 0.481068 0.727828
vt 0.474783 0.875904
vt 0.428355 0.874786
vt 0.512233 0.965517
vt 0.381329 0.956602
vt 0.427139 0.899811
vt 0.477795 0.899129
vt 0.791507 0.511792
vt 0.903875 0.572350
vt 0.924703 0.501924
vt 0.928322 0.574372
vt 0.945973 0.630381
vt 0.935742 0.465006
vt 0.962120 0.510980
vt 0.977945 0.620809
vt 0.985164 0.377079
vt 0.968313 0.379800
vt 0.945867 0.587466
vt 0.940822 0.477519
vt 0.939139 0.506810
vt 0.943034 0.555625
vt 0.714613 0.496561
vt 0.645121 0.474069
vt 0.667236 0.423261
vt 0.965651 0.321289
vt 0.982334 0.319222
vt 0.696301 0.534395
vt 0.782021 0.390427
vt 0.688846 0.558579
vt 0.595485 0.505274
vt 0.600277 0.468768
vt 0.631085 0.503945
vt 0.625344 0.530927
vt 0.694735 0.392988
vt 0.712386 0.366835
vt 0.969232 0.311371
vt 0.980924 0.309824
vt 0.574207 0.388451
vt 0.597390 0.355297
vt 0.647371 0.360111
vt 0.616648 0.401394
vt 0.969519 0.302249
vt 0.978744 0.300343
vt 0.570231 0.477227
vt 0.574462 0.451610
vt 0.969434 0.292358
vt 0.976558 0.291442
vt 0.586495 0.392547
vt 0.580638 0.661317
vt 0.606291 0.578823
vt 0.653286 0.563963
vt 0.620758 0.655013
vt 0.000000 0.000000
vn 0.002657 0.893698 -0.448661
vn -0.018046 0.998645 0.048809
vn -0.224128 -0.972228 -0.067377
vn 0.366631 0.841374 -0.397078
vn -0.009102 0.285457 0.958348
vn 0.297989 0.819204 0.490008
vn 0.284196 -0.958499 -0.022657
vn -0.338146 0.885362 -0.319048
vn -0.289380 0.956562 0.035334
vn -0.225564 0.073680 -0.971438
vn -0.534318 0.027579 0.844833
vn -0.652674 0.493583 0.574798
vn -0.574703 0.807437 0.133274
vn 0.045623 0.524052 0.850463
vn -0.412769 0.768688 -0.488612
usemtl sushi_m
# s off
f 110/85/1 105/86/1 64/87/1
f 110/85/1 64/87/1 97/88/1
f 100/89/2 101/90/2 67/91/2
f 100/89/2 67/91/2 66/92/2
f 63/93/3 64/87/3 69/94/3
f 63/93/3 69/94/3 70/95/3
f 67/91/4 68/96/4 65/97/4
f 67/91/4 65/97/4 66/92/4
f 64/87/5 63/93/5 98/98/5
f 64/87/5 98/98/5 97/88/5
f 67/99/6 70/100/6 69/101/6
f 67/99/6 69/101/6 68/102/6
f 71/103/7 72/104/7 73/105/7
f 71/103/7 73/105/7 74/106/7
f 75/107/8 76/108/8 77/109/8
f 75/107/8 77/109/8 78/110/8
f 83/111/9 84/112/9 85/113/9
f 83/111/9 85/113/9 86/114/9
f 87/115/10 88/116/10 89/117/10
f 87/115/10 89/117/10 90/118/10
f 91/119/11 92/120/11 93/121/11
f 91/119/11 93/121/11 94/122/11
f 83/111/12 86/114/12 73/105/12
f 83/111/12 73/105/12 72/104/12
f 88/116/13 87/115/13 74/106/13
f 88/116/13 74/106/13 73/105/13
f 77/109/14 76/108/14 71/103/14
f 77/109/14 71/103/14 74/106/14
f 87/115/15 90/118/15 78/110/15
f 87/115/15 78/110/15 77/109/15
f 93/121/16 92/120/16 75/107/16
f 93/121/16 75/107/16 78/110/16
f 91/119/17 94/122/17 85/113/17
f 91/119/17 85/113/17 84/112/17
f 89/117/18 88/116/18 86/114/18
f 89/117/18 86/114/18 85/113/18
f 94/122/19 93/121/19 90/118/19
f 94/122/19 90/118/19 89/117/19
f 77/109/20 74/106/20 87/115/20
f 88/116/21 73/105/21 86/114/21
f 89/117/22 85/113/22 94/122/22
f 93/121/23 78/110/23 90/118/23
f 66/92/66 65/97/66 95/123/66
f 66/92/66 95/123/66 96/124/66
f 96/124/67 95/123/67 97/88/67
f 96/124/67 97/88/67 98/98/67
f 103/125/26 104/126/26 99/127/26
f 100/128/27 103/125/27 99/127/27
f 101/129/28 100/128/28 99/127/28
f 102/130/29 101/129/29 99/127/29
f 70/100/68 67/99/68 101/131/68
f 70/100/68 101/131/68 102/132/68
f 103/133/69 100/89/69 66/92/69
f 103/133/69 66/92/69 96/124/69
f 63/93/70 70/95/70 102/134/70
f 63/93/70 102/134/70 99/135/70
f 98/98/71 63/93/71 99/135/71
f 98/98/71 99/135/71 104/136/71
f 104/136/34 103/133/34 96/124/34
f 104/136/34 96/124/34 98/98/34
f 110/85/35 109/137/35 115/138/35
f 110/85/35 115/138/35 116/139/35
f 68/102/72 69/101/72 108/140/72
f 68/102/72 108/140/72 107/141/72
f 95/123/73 65/97/73 106/142/73
f 95/123/73 106/142/73 109/137/73
f 97/88/74 95/123/74 109/137/74
f 97/88/74 109/137/74 110/85/74
f 105/86/39 108/143/39 69/94/39
f 105/86/39 69/94/39 64/87/39
f 107/144/40 106/142/40 65/97/40
f 107/144/40 65/97/40 68/96/40
f 120/145/75 117/146/75 111/147/75
f 120/145/75 111/147/75 114/148/75
f 114/148/42 111/147/42 106/142/42
f 114/148/42 106/142/42 107/144/42
f 109/137/43 106/142/43 111/147/43
f 109/137/43 111/147/43 115/138/43
f 112/149/76 113/150/76 108/143/76
f 112/149/76 108/143/76 105/86/76
f 107/141/45 108/140/45 113/151/45
f 107/141/45 113/151/45 114/152/45
f 116/139/77 112/149/77 105/86/77
f 116/139/77 105/86/77 110/85/77
f 121/153/47 123/154/47 119/155/47
f 121/153/47 119/155/47 118/156/47
f 116/139/48 115/138/48 117/146/48
f 116/139/48 117/146/48 118/156/48
f 114/152/49 113/151/49 119/157/49
f 114/152/49 119/157/49 120/158/49
f 118/156/50 112/149/50 116/139/50
f 118/156/51 119/155/51 113/150/51
f 118/156/51 113/150/51 112/149/51
f 124/159/52 122/160/52 117/146/52
f 124/159/52 117/146/52 120/145/52
f 115/138/53 111/147/53 117/146/53
f 120/158/54 119/157/54 123/161/54
f 120/158/54 123/161/54 124/162/54
f 118/156/55 117/146/55 122/160/55
f 118/156/55 122/160/55 121/163/55
f 124/164/56 123/165/56 121/166/56
f 124/164/56 121/166/56 122/167/56
usemtl _NONE
f 79/168/57 80/168/57 81/168/57
f 79/168/57 81/168/57 82/168/57
f 82/168/78 81/168/78 72/168/78
f 82/168/78 72/168/78 71/168/78
f 79/168/59 82/168/59 76/168/59
f 79/168/59 76/168/59 75/168/59
f 92/168/60 91/168/60 80/168/60
f 92/168/60 80/168/60 79/168/60
f 84/168/61 83/168/61 81/168/61
f 84/168/61 81/168/61 80/168/61
f 76/168/79 82/168/79 71/168/79
f 83/168/80 72/168/80 81/168/80
f 84/168/64 80/168/64 91/168/64
f 92/168/65 79/168/65 75/168/65
o plate_Cone
v -0.000911 0.402548 0.000569
v 0.143621 0.471058 0.477022
v -0.440014 0.471057 -0.234138
v 0.314950 0.471058 0.385445
v -0.145442 0.471057 -0.475887
v 0.438192 0.471058 0.235273
v -0.486960 0.471066 -0.096113
v 0.494586 0.471057 0.049369
v -0.496407 0.471057 0.049370
v 0.475544 0.471057 -0.143963
v -0.316771 0.471057 -0.384310
v 0.411142 0.471066 -0.274757
v 0.314950 0.471057 -0.384310
v -0.235615 0.471058 0.439671
v 0.096962 0.471017 -0.491473
v -0.418084 0.471034 0.279314
v -0.049709 0.471049 0.496036
v 0.205116 0.381963 -0.137094
v 0.218641 0.381959 0.117921
v -0.025310 0.381784 0.248302
v -0.158841 0.381958 -0.191871
v -0.073176 0.381958 -0.237659
v -0.209497 0.381947 0.139941
v 0.237317 0.381959 -0.071697
v 0.157019 0.381959 0.193007
v 0.048026 0.381939 -0.245452
v -0.248659 0.381959 0.024969
v -0.220462 0.381959 -0.116785
v -0.118263 0.381959 0.220120
v 0.246838 0.381959 0.024969
v 0.071355 0.381959 0.238795
v 0.157020 0.381958 -0.191871
v -0.243935 0.381963 -0.047772
v 0.243999 0.421775 -0.163129
v 0.260002 0.421770 0.138600
v -0.028636 0.421765 0.292865
v -0.186627 0.421770 -0.227939
v -0.085270 0.421770 -0.282116
v -0.246563 0.421757 0.164655
v 0.282099 0.421770 -0.085753
v 0.187093 0.421770 0.227441
v 0.058134 0.421746 -0.291336
v -0.292898 0.421770 0.028622
v -0.259537 0.421770 -0.139099
v -0.138616 0.421770 0.259520
v 0.293364 0.421770 0.028621
v 0.085736 0.421770 0.281617
v 0.187093 0.421770 -0.227939
v -0.287309 0.421775 -0.057445
vt 0.482891 0.552272
vt 0.512765 0.364288
vt 0.544014 0.551533
vt 0.000000 0.000000
vn 0.107396 0.990302 0.088136
vn 0.065492 0.990302 0.122526
vn 0.009137 0.990166 0.139601
vn -0.061865 0.990166 0.125478
vn -0.103829 0.990416 0.091084
vn -0.123885 0.990416 0.061068
vn -0.138263 0.990302 0.013616
vn 0.130783 0.990416 0.044416
vn 0.137825 0.990416 0.009010
vn 0.132469 0.990164 -0.045022
vn 0.092287 0.990164 -0.105158
vn 0.040353 0.990302 -0.132939
vn -0.013643 0.990302 -0.138257
vn -0.065492 0.990302 -0.122529
vn -0.107396 0.990302 -0.088139
vn -0.132950 0.990302 -0.040331
vn 0.022762 -0.996432 -0.081279
vn -0.006468 -0.996431 -0.084158
vn 0.055961 -0.996410 -0.063532
vn 0.080112 -0.996410 -0.027387
vn 0.083344 -0.996506 0.005351
vn 0.079048 -0.996506 0.026953
vn 0.064956 -0.996463 0.053309
vn -0.039611 -0.996463 -0.074106
vn 0.039611 -0.996463 0.074109
vn 0.005272 -0.996408 0.084521
vn -0.037215 -0.996408 0.076069
vn -0.062717 -0.996506 0.055151
vn -0.074953 -0.996506 0.036839
vn -0.083625 -0.996463 0.008238
vn -0.080411 -0.996463 -0.024391
vn -0.064956 -0.996463 -0.053307
vn -0.196449 -0.737824 0.645774
vn 0.066354 -0.740994 0.668226
vn -0.448238 -0.734046 0.510155
vn -0.642670 -0.734226 0.218830
vn -0.670278 -0.740830 -0.043571
vn -0.633800 -0.742864 -0.215522
vn -0.516305 -0.744239 -0.423719
vn 0.314131 -0.745609 0.587698
vn -0.312710 -0.748293 -0.585038
vn -0.042562 -0.750004 -0.660062
vn 0.290120 -0.753577 -0.589874
vn 0.489370 -0.758907 -0.429625
vn 0.584280 -0.758826 -0.287749
vn 0.651709 -0.755748 -0.064187
vn 0.629486 -0.753183 0.190954
vn 0.511617 -0.749635 0.419875
vn -0.069288 -0.971104 0.228377
vn 0.023449 -0.970990 0.237968
vn -0.158353 -0.970775 0.180332
vn -0.227227 -0.970769 0.077300
vn -0.236841 -0.971426 -0.015439
vn -0.225003 -0.971353 -0.076465
vn -0.185136 -0.970897 -0.151935
vn 0.112998 -0.970845 0.211405
vn -0.113191 -0.970744 -0.211765
vn -0.015711 -0.970176 -0.241891
vn 0.107337 -0.970032 -0.217983
vn 0.180488 -0.970740 -0.158395
vn 0.215397 -0.970743 -0.106126
vn 0.240140 -0.970450 -0.023650
vn 0.230517 -0.970553 0.069928
vn 0.185777 -0.970691 0.152464
usemtl sushi_m
# s off
f 127/169/81 125/170/81 135/171/81
f 125/170/82 129/169/82 135/171/82
f 125/170/83 139/171/83 129/169/83
f 125/170/84 137/169/84 139/171/84
f 125/170/85 136/171/85 137/169/85
f 125/170/86 134/169/86 136/171/86
f 125/170/87 132/171/87 134/169/87
f 125/170/88 127/169/88 131/171/88
f 125/170/89 131/171/89 133/169/89
f 125/170/90 133/169/90 140/171/90
f 125/170/91 140/171/91 138/169/91
f 125/170/92 138/169/92 141/171/92
f 125/170/93 141/171/93 126/169/93
f 128/171/94 125/170/94 126/169/94
f 125/170/95 128/171/95 130/169/95
f 125/170/96 130/169/96 132/171/96
usemtl _NONE
f 153/172/97 125/172/97 144/172/97
f 144/172/98 125/172/98 155/172/98
f 147/172/99 125/172/99 153/172/99
f 151/172/100 125/172/100 147/172/100
f 157/172/101 125/172/101 151/172/101
f 152/172/102 125/172/102 157/172/102
f 145/172/103 125/172/103 152/172/103
f 155/172/104 125/172/104 149/172/104
f 146/172/105 125/172/105 145/172/105
f 150/172/106 125/172/106 146/172/106
f 156/172/107 125/172/107 150/172/107
f 142/172/108 125/172/108 156/172/108
f 148/172/109 125/172/109 142/172/109
f 154/172/110 125/172/110 148/172/110
f 143/172/111 125/172/111 154/172/111
f 149/172/112 125/172/112 143/172/112
f 169/172/113 153/172/113 144/172/113
f 169/172/113 144/172/113 160/172/113
f 160/172/114 144/172/114 155/172/114
f 160/172/114 155/172/114 171/172/114
f 163/172/115 147/172/115 153/172/115
f 163/172/115 153/172/115 169/172/115
f 167/172/116 151/172/116 147/172/116
f 167/172/116 147/172/116 163/172/116
f 173/172/117 157/172/117 151/172/117
f 173/172/117 151/172/117 167/172/117
f 168/172/118 152/172/118 157/172/118
f 168/172/118 157/172/118 173/172/118
f 161/172/119 145/172/119 152/172/119
f 161/172/119 152/172/119 168/172/119
f 171/172/120 155/172/120 149/172/120
f 171/172/120 149/172/120 165/172/120
f 162/172/121 146/172/121 145/172/121
f 162/172/121 145/172/121 161/172/121
f 166/172/122 150/172/122 146/172/122
f 166/172/122 146/172/122 162/172/122
f 172/172/123 156/172/123 150/172/123
f 172/172/123 150/172/123 166/172/123
f 158/172/124 142/172/124 156/172/124
f 158/172/124 156/172/124 172/172/124
f 164/172/125 148/172/125 142/172/125
f 164/172/125 142/172/125 158/172/125
f 170/172/126 154/172/126 148/172/126
f 170/172/126 148/172/126 164/172/126
f 159/172/127 143/172/127 154/172/127
f 159/172/127 154/172/127 170/172/127
f 165/172/128 149/172/128 143/172/128
f 165/172/128 143/172/128 159/172/128
f 138/172/129 169/172/129 160/172/129
f 138/172/129 160/172/129 141/172/129
f 141/172/130 160/172/130 171/172/130
f 141/172/130 171/172/130 126/172/130
f 140/172/131 163/172/131 169/172/131
f 140/172/131 169/172/131 138/172/131
f 133/172/132 167/172/132 163/172/132
f 133/172/132 163/172/132 140/172/132
f 131/172/133 173/172/133 167/172/133
f 131/172/133 167/172/133 133/172/133
f 127/172/134 168/172/134 173/172/134
f 127/172/134 173/172/134 131/172/134
f 135/172/135 161/172/135 168/172/135
f 135/172/135 168/172/135 127/172/135
f 126/172/136 171/172/136 165/172/136
f 126/172/136 165/172/136 128/172/136
f 129/172/137 162/172/137 161/172/137
f 129/172/137 161/172/137 135/172/137
f 139/172/138 166/172/138 162/172/138
f 139/172/138 162/172/138 129/172/138
f 137/172/139 172/172/139 166/172/139
f 137/172/139 166/172/139 139/172/139
f 136/172/140 158/172/140 172/172/140
f 136/172/140 172/172/140 137/172/140
f 134/172/141 164/172/141 158/172/141
f 134/172/141 158/172/141 136/172/141
f 132/172/142 170/172/142 164/172/142
f 132/172/142 164/172/142 134/172/142
f 130/172/143 159/172/143 170/172/143
f 130/172/143 170/172/143 132/172/143
f 128/172/144 165/172/144 159/172/144
f 128/172/144 159/172/144 130/172/144
