# Blender v2.64 (sub 0) OBJ File: 'coaster.blend'
# www.blender.org
mtllib coaster_connect.mtl
o Cube.001
v -0.680849 0.719505 0.764908
v -0.680849 0.728092 -0.633877
v -0.599807 0.184370 -0.487591
v 0.680849 0.728092 -0.633877
v 0.599807 0.184370 -0.487591
v 0.680849 0.719505 0.764908
v -0.599807 0.184370 0.769526
v 0.566961 0.727230 -0.488702
v 0.566961 0.720079 0.676103
v -0.566961 0.720079 0.676103
v -0.566961 0.727230 -0.488702
v 0.566961 0.344764 -0.488702
v 0.566961 0.337613 0.676103
v -0.566961 0.337613 0.676103
v -0.566961 0.344764 -0.488702
v 0.599807 0.184370 0.769526
v 0.574137 0.011717 0.755290
v 0.368692 0.177773 0.755290
v 0.368692 0.177773 0.423793
v 0.368692 -0.145005 0.755290
v 0.368692 -0.145005 0.423793
v 0.660655 0.010415 0.755290
v 0.660655 0.010415 0.423793
v 0.455210 0.176471 0.423793
v 0.455210 -0.145005 0.755290
v 0.455210 -0.145005 0.423793
v 0.574137 0.011717 0.423793
v 0.455210 0.176471 0.755290
v 0.574137 0.011717 -0.130188
v 0.368692 0.177773 -0.130188
v 0.368692 0.177773 -0.461685
v 0.368692 -0.145005 -0.130188
v 0.574137 0.011717 -0.461685
v 0.660655 0.010415 -0.130188
v 0.660655 0.010415 -0.461685
v 0.455210 0.176471 -0.461685
v 0.455210 -0.145005 -0.130188
v 0.455210 -0.145005 -0.461685
v 0.368692 -0.145005 -0.461685
v 0.455210 0.176471 -0.130188
v -0.575176 0.011717 0.755290
v -0.369731 0.177773 0.423793
v -0.369731 0.177773 0.755290
v -0.369731 -0.145005 0.755290
v -0.369731 -0.145005 0.423793
v -0.661695 0.010415 0.755290
v -0.456250 0.176471 0.423793
v -0.661695 0.010415 0.423793
v -0.456250 -0.145005 0.755290
v -0.456250 -0.145005 0.423793
v -0.575176 0.011717 0.423793
v -0.456250 0.176471 0.755290
v -0.575176 0.011717 -0.130188
v -0.369731 0.177773 -0.461685
v -0.369731 0.177773 -0.130188
v -0.369731 -0.145005 -0.130188
v -0.575176 0.011717 -0.461685
v -0.661695 0.010415 -0.130188
v -0.456250 0.176471 -0.461685
v -0.661695 0.010415 -0.461685
v -0.456250 -0.145005 -0.130188
v -0.456250 -0.145005 -0.461685
v -0.369731 -0.145005 -0.461685
v -0.456250 0.176471 -0.130188
vt 0.564252 0.309418
vt 0.784076 0.619100
vt 0.646105 0.580995
vt 0.784757 0.961781
vt 0.785808 0.619067
vt 0.923427 0.639886
vt 0.785414 0.619067
vt 0.784757 0.267354
vt 0.923384 0.580969
vt 0.343747 0.316321
vt 0.344183 0.000000
vt 0.646105 0.000422
vt 0.276148 0.432414
vt 0.170000 0.175000
vt 0.028771 0.037397
vt 0.029630 0.330053
vt 0.001032 0.352449
vt 0.314158 0.036559
vt 0.189011 0.445388
vt 0.000000 0.001007
vt 0.646105 0.911976
vt 0.646672 0.619100
vt 0.742320 0.619393
vt 0.219563 0.762048
vt 0.096201 0.912235
vt 0.192332 0.619355
vt 0.193207 0.904742
vt 0.097076 0.905037
vt 0.648647 0.264914
vt 0.922501 0.941807
vt 0.920864 0.264883
vt 0.645669 0.316742
vt 0.344606 0.851721
vt 0.630813 0.673479
vt 0.342715 0.000000
vt 0.741753 0.912269
vt 0.000547 0.912529
vt 0.342596 0.619355
vt 0.096201 0.619650
vt 0.472135 0.964639
vt 0.420395 0.965471
vt 0.420510 0.882058
vt 0.245166 0.962009
vt 0.193452 0.959593
vt 0.244922 0.878754
vt 0.997141 0.533257
vt 0.996874 0.616512
vt 0.945159 0.619067
vt 0.945343 0.786651
vt 0.945202 0.703239
vt 0.997022 0.787410
vt 0.629994 0.913692
vt 0.566802 0.898350
vt 0.616284 0.896775
vt 0.923568 0.786688
vt 0.923427 0.703275
vt 0.945426 0.535812
vt 0.923384 0.619018
vt 0.659693 0.912269
vt 0.659562 0.978719
vt 0.646237 0.929392
vt 0.722721 0.963351
vt 0.709011 0.980268
vt 0.566899 0.964828
vt 0.553443 0.947705
vt 0.975168 0.870823
vt 0.923427 0.871654
vt 0.923542 0.788242
vt 0.245166 0.876339
vt 0.193452 0.873923
vt 0.193207 0.790668
vt 0.997141 0.083573
vt 0.996874 0.166828
vt 0.945159 0.169383
vt 0.945343 0.702479
vt 0.945203 0.619067
vt 0.996881 0.619826
vt 0.420395 0.913692
vt 0.357203 0.898350
vt 0.406684 0.896775
vt 0.923568 0.702516
vt 0.923427 0.619103
vt 0.945426 0.086128
vt 0.923384 0.169334
vt 0.033173 0.912529
vt 0.033041 0.978979
vt 0.019717 0.929652
vt 0.096201 0.963611
vt 0.082490 0.980527
vt 0.357300 0.964828
vt 0.343844 0.947705
vt 0.722862 0.995682
vt 0.774397 0.913086
vt 0.774538 0.996499
vt 0.245188 0.619355
vt 0.244922 0.702609
vt 0.193474 0.621757
vt 0.997119 0.255206
vt 0.996875 0.171951
vt 0.975122 0.446660
vt 0.923384 0.447434
vt 0.975238 0.363248
vt 0.553346 0.932363
vt 0.539636 0.949280
vt 0.490154 0.947705
vt 0.996898 0.446691
vt 0.997013 0.363278
vt 0.945404 0.252638
vt 0.923384 0.169425
vt 0.259951 0.988610
vt 0.246495 0.971487
vt 0.259820 0.922160
vt 0.309269 0.920612
vt 0.322979 0.937529
vt 0.476796 0.898350
vt 0.490252 0.881227
vt 0.923568 0.955067
vt 0.975104 0.872471
vt 0.975245 0.955884
vt 0.245188 0.705011
vt 0.193474 0.707413
vt 0.997119 0.533257
vt 0.945159 0.447434
vt 0.996874 0.450002
vt 0.975122 0.338618
vt 0.923499 0.255979
vt 0.975237 0.255206
vt 0.193207 0.956173
vt 0.179497 0.973090
vt 0.130015 0.971515
vt 0.996898 0.338649
vt 0.997013 0.255236
vt 0.945404 0.530689
vt 0.923384 0.447476
vt 0.936972 0.083573
vt 0.923516 0.066450
vt 0.936841 0.017123
vt 0.986290 0.015574
vt 1.000000 0.032491
vt 0.116656 0.922160
vt 0.130112 0.905037
vt 0.472250 0.881227
vt 0.193207 0.876339
vt 0.996881 0.703998
vt 0.553346 0.881227
vt 0.923651 0.535764
vt 0.646105 0.995842
vt 0.975283 0.787410
vt 0.244922 0.793084
vt 0.997022 0.703239
vt 0.343747 0.881227
vt 0.923651 0.086080
vt 0.019585 0.996102
vt 0.722721 0.912269
vt 0.193207 0.705011
vt 0.923499 0.364021
vt 0.476699 0.964828
vt 0.923629 0.252680
vt 0.246363 0.905037
vt 0.244922 0.788266
vt 0.923384 0.339392
vt 0.116559 0.988638
vt 0.923629 0.530731
vt 0.923384 0.000000
vt 0.345425 0.674318
vt 0.246363 0.619650
vt 0.277257 0.432354
vn -0.989038 -0.147660 -0.000906
vn -0.000000 -0.259807 -0.965661
vn 0.989038 -0.147660 -0.000906
vn -0.000000 -1.000000 -0.000000
vn 0.000000 0.008629 0.999963
vn 0.000253 0.999981 0.006139
vn -0.000253 0.999981 0.006139
vn 0.000000 0.999982 0.005938
vn -1.000000 0.000000 -0.000000
vn 1.000000 0.000000 0.000000
vn 0.000000 -0.000000 1.000000
vn -0.988726 -0.149735 -0.000000
vn 0.988726 -0.149735 -0.000000
vn 0.000000 0.999981 0.006139
vn 0.000000 0.999979 0.006463
vn 0.000256 0.999981 0.006139
vn -0.000256 0.999981 0.006139
vn 0.000000 0.000000 -1.000000
vn -0.628611 -0.777720 -0.000000
vn -0.606514 0.795072 0.000000
vn 0.628611 0.777720 0.000000
vn 0.603315 -0.797503 -0.000000
vn 0.015047 0.999887 0.000000
vn -0.606515 0.795072 0.000000
vn 0.628611 -0.777720 -0.000000
vn 0.606514 0.795072 0.000000
vn -0.628611 0.777720 0.000000
vn -0.603315 -0.797503 -0.000000
vn -0.015047 0.999887 0.000000
usemtl 
# s off
f 1/1/1 2/2/1 3/3/1
f 2/4/2 4/5/2 5/6/2
f 4/7/3 6/8/3 5/9/3
f 7/10/4 3/11/4 5/12/4
f 1/13/5 7/14/5 6/1/5
f 8/15/6 9/16/6 6/17/6
f 11/18/7 1/1/7 10/19/7
f 11/18/8 8/15/8 4/20/8
f 12/21/9 13/22/9 9/23/9
f 14/24/10 15/25/10 10/19/10
f 15/26/11 12/27/11 8/28/11
f 7/29/12 1/1/12 3/3/12
f 3/30/2 2/4/2 5/6/2
f 6/8/13 16/31/13 5/9/13
f 16/32/4 7/10/4 5/12/4
f 14/24/14 13/33/14 15/34/14
f 10/19/15 1/1/15 9/16/15
f 1/1/15 6/17/15 9/16/15
f 4/20/16 8/15/16 6/17/16
f 2/35/17 1/1/17 11/18/17
f 2/35/8 11/18/8 4/20/8
f 8/36/9 12/21/9 9/23/9
f 15/25/10 11/37/10 10/19/10
f 14/24/18 10/19/18 13/38/18
f 11/39/11 15/26/11 8/28/11
f 17/40/19 18/41/19 19/42/19
f 20/43/20 17/44/20 21/45/20
f 22/46/21 23/47/21 24/48/21
f 25/49/22 26/50/22 22/51/22
f 21/52/18 27/53/18 26/54/18
f 20/55/4 21/56/4 26/50/4
f 28/57/23 24/48/23 19/58/23
f 18/59/11 17/60/11 28/61/11
f 17/60/11 20/62/11 25/63/11
f 27/53/18 19/64/18 24/65/18
f 29/66/19 30/67/19 31/68/19
f 32/69/24 29/70/24 33/71/24
f 34/72/21 35/73/21 36/74/21
f 37/75/22 38/76/22 35/77/22
f 39/78/18 33/79/18 38/80/18
f 32/81/4 39/82/4 38/76/4
f 40/83/23 36/74/23 31/84/23
f 30/85/11 29/86/11 40/87/11
f 29/86/11 32/88/11 37/89/11
f 33/79/18 31/90/18 36/91/18
f 41/92/25 42/93/25 43/94/25
f 44/95/26 45/96/26 41/97/26
f 46/98/27 47/74/27 48/99/27
f 49/100/28 46/101/28 50/102/28
f 45/103/18 50/104/18 51/105/18
f 44/106/4 50/102/4 45/107/4
f 52/108/29 42/109/29 47/74/29
f 43/110/11 52/111/11 41/112/11
f 41/112/11 49/113/11 44/114/11
f 51/105/18 47/115/18 42/116/18
f 53/117/25 54/118/25 55/119/25
f 56/120/26 57/71/26 53/121/26
f 58/122/27 59/123/27 60/124/27
f 61/125/28 60/126/28 62/127/28
f 63/128/18 62/129/18 57/130/18
f 56/131/4 62/127/4 63/132/4
f 64/133/29 54/134/29 59/123/29
f 55/135/11 64/136/11 53/137/11
f 53/137/11 61/138/11 56/139/11
f 57/130/18 59/140/18 54/141/18
f 27/142/19 17/40/19 19/42/19
f 17/44/24 27/143/24 21/45/24
f 28/57/21 22/46/21 24/48/21
f 26/50/22 23/144/22 22/51/22
f 27/53/18 23/145/18 26/54/18
f 25/49/4 20/55/4 26/50/4
f 18/146/23 28/57/23 19/58/23
f 17/60/11 22/147/11 28/61/11
f 22/147/11 17/60/11 25/63/11
f 23/145/18 27/53/18 24/65/18
f 33/148/19 29/66/19 31/68/19
f 39/149/20 32/69/20 33/71/20
f 40/83/21 34/72/21 36/74/21
f 34/150/22 37/75/22 35/77/22
f 33/79/18 35/151/18 38/80/18
f 37/75/4 32/81/4 38/76/4
f 30/152/23 40/83/23 31/84/23
f 29/86/11 34/153/11 40/87/11
f 34/153/11 29/86/11 37/89/11
f 35/151/18 33/79/18 36/91/18
f 51/154/25 42/93/25 41/92/25
f 41/97/26 45/96/26 51/155/26
f 52/108/27 47/74/27 46/98/27
f 50/102/28 46/101/28 48/156/28
f 51/105/18 50/104/18 48/157/18
f 49/100/4 50/102/4 44/106/4
f 43/158/29 42/109/29 52/108/29
f 41/112/11 52/111/11 46/159/11
f 46/159/11 49/113/11 41/112/11
f 48/157/18 47/115/18 51/105/18
f 57/67/25 54/118/25 53/117/25
f 63/160/26 57/71/26 56/120/26
f 64/133/27 59/123/27 58/122/27
f 58/161/28 60/126/28 61/125/28
f 57/130/18 62/129/18 60/162/18
f 61/125/4 62/127/4 56/131/4
f 55/163/29 54/134/29 64/133/29
f 53/137/11 64/136/11 58/164/11
f 58/164/11 61/138/11 53/137/11
f 60/162/18 59/140/18 57/130/18
f 15/34/14 13/33/14 12/165/14
f 10/19/18 9/166/18 13/38/18
f 7/14/5 16/167/5 6/1/5
