# Blender v2.64 (sub 0) OBJ File: 'coaster.blend'
# www.blender.org
mtllib coaster.mtl
o Cube
v 0.680849 0.719505 -0.764908
v 0.680849 0.728092 0.633877
v 0.599807 0.184370 0.487591
v -0.680849 0.728092 0.633877
v -0.599807 0.184370 0.487591
v -0.680849 0.719505 -0.764908
v 0.599807 0.184370 -0.769526
v -0.000000 0.719505 -0.907993
v -0.566961 0.720079 -0.676103
v 0.597896 0.560257 -1.319799
v 0.514945 0.208078 -1.319799
v -0.227330 0.385176 -1.807175
v 0.227330 0.385176 -1.807175
v 0.209026 0.252499 -1.728305
v -0.597896 0.560257 -1.319799
v -0.514945 0.202536 -1.319799
v -0.599807 0.184370 -0.769526
v -0.209026 0.252499 -1.728305
v -0.000000 0.720079 -0.795254
v 0.566961 0.720079 -0.676103
v -0.566961 0.727230 0.488702
v 0.566961 0.727230 0.488702
v -0.566961 0.344764 0.488702
v -0.566961 0.337613 -0.676103
v -0.000000 0.337613 -0.795254
v 0.566961 0.337613 -0.676103
v 0.566961 0.344764 0.488702
v -0.574137 0.011717 -0.755290
v -0.368692 0.177773 -0.755290
v -0.368692 0.177773 -0.423793
v -0.368692 -0.145005 -0.755290
v -0.368692 -0.145005 -0.423793
v -0.660655 0.010415 -0.755290
v -0.660655 0.010415 -0.423793
v -0.455210 0.176471 -0.423793
v -0.455210 -0.145005 -0.755290
v -0.455210 -0.145005 -0.423793
v -0.574137 0.011717 -0.423793
v -0.455210 0.176471 -0.755290
v -0.574137 0.011717 0.130188
v -0.368692 0.177773 0.130188
v -0.368692 0.177773 0.461685
v -0.368692 -0.145005 0.130188
v -0.574137 0.011717 0.461685
v -0.660655 0.010415 0.130188
v -0.660655 0.010415 0.461685
v -0.455210 0.176471 0.461685
v -0.455210 -0.145005 0.130188
v -0.455210 -0.145005 0.461685
v -0.368692 -0.145005 0.461685
v -0.455210 0.176471 0.130188
v 0.575176 0.011717 -0.755290
v 0.369731 0.177773 -0.423793
v 0.369731 0.177773 -0.755290
v 0.369731 -0.145005 -0.755290
v 0.369731 -0.145005 -0.423793
v 0.661695 0.010415 -0.755290
v 0.456250 0.176471 -0.423793
v 0.661695 0.010415 -0.423793
v 0.456250 -0.145005 -0.755290
v 0.456250 -0.145005 -0.423793
v 0.575176 0.011717 -0.423793
v 0.456250 0.176471 -0.755290
v 0.575176 0.011717 0.130188
v 0.369731 0.177773 0.461685
v 0.369731 0.177773 0.130188
v 0.369731 -0.145005 0.130188
v 0.575176 0.011717 0.461685
v 0.661695 0.010415 0.130188
v 0.456250 0.176471 0.461685
v 0.661695 0.010415 0.461685
v 0.456250 -0.145005 0.130188
v 0.456250 -0.145005 0.461685
v 0.369731 -0.145005 0.461685
v 0.456250 0.176471 0.130188
vt 0.784757 0.267393
vt 0.784076 0.619100
vt 0.646105 0.580995
vt 0.784757 0.961781
vt 0.785808 0.619067
vt 0.923427 0.639886
vt 0.785414 0.619067
vt 0.784757 0.267354
vt 0.923384 0.580969
vt 0.343747 0.316321
vt 0.344183 0.000000
vt 0.646105 0.000422
vt 0.172495 0.387882
vt 0.001032 0.352449
vt 0.029630 0.330053
vt 0.743708 0.126825
vt 0.648647 0.264914
vt 0.653289 0.125626
vt 0.742671 0.733529
vt 0.742320 0.619100
vt 0.776709 0.623601
vt 0.825806 0.126791
vt 0.917605 0.125596
vt 0.920864 0.264883
vt 0.656573 0.019524
vt 0.690430 0.000000
vt 0.879044 0.000000
vt 0.022327 0.494357
vt 0.115960 0.619355
vt 0.323286 0.493473
vt 0.364909 0.454941
vt 0.624116 0.455273
vt 0.435462 0.441369
vt 0.358618 0.338230
vt 0.540679 0.441516
vt 0.172412 0.359558
vt 0.315018 0.329214
vt 0.028771 0.037397
vt 0.314158 0.036559
vt 0.343747 0.351443
vt 0.000000 0.001007
vt 0.646105 0.911976
vt 0.646672 0.619100
vt 0.742320 0.619393
vt 0.343747 0.762046
vt 0.343472 0.904742
vt 0.247239 0.905037
vt 0.095654 0.619355
vt 0.096201 0.912235
vt 0.000000 0.619648
vt 0.247514 0.762341
vt 0.246363 0.619650
vt 0.342596 0.619355
vt 0.192332 0.619355
vt 0.193207 0.904742
vt 0.097076 0.905037
vt 0.922501 0.941807
vt 0.645669 0.316742
vt 0.777032 0.728817
vt 0.912899 0.019526
vt 0.230390 0.619018
vt 0.617825 0.338562
vt 0.342715 0.000000
vt 0.741753 0.912269
vt 0.000547 0.912529
vt 0.096201 0.619650
vt 0.472135 0.964639
vt 0.420395 0.965471
vt 0.420510 0.882058
vt 0.245166 0.962009
vt 0.193452 0.959593
vt 0.244922 0.878754
vt 0.997141 0.533257
vt 0.996874 0.616512
vt 0.945159 0.619067
vt 0.945343 0.786651
vt 0.945202 0.703239
vt 0.997022 0.787410
vt 0.629994 0.913692
vt 0.566802 0.898350
vt 0.616284 0.896775
vt 0.923568 0.786688
vt 0.923427 0.703275
vt 0.945426 0.535812
vt 0.923384 0.619018
vt 0.659693 0.912269
vt 0.659562 0.978719
vt 0.646237 0.929392
vt 0.722721 0.963351
vt 0.709011 0.980268
vt 0.566899 0.964828
vt 0.553443 0.947705
vt 0.975168 0.870823
vt 0.923427 0.871654
vt 0.923542 0.788242
vt 0.245166 0.876339
vt 0.193452 0.873923
vt 0.193207 0.790668
vt 0.997141 0.083573
vt 0.996874 0.166828
vt 0.945159 0.169383
vt 0.945343 0.702479
vt 0.945203 0.619067
vt 0.996881 0.619826
vt 0.420395 0.913692
vt 0.357203 0.898350
vt 0.406684 0.896775
vt 0.923568 0.702516
vt 0.923427 0.619103
vt 0.945426 0.086128
vt 0.923384 0.169334
vt 0.033173 0.912529
vt 0.033041 0.978979
vt 0.019717 0.929652
vt 0.096201 0.963611
vt 0.082490 0.980527
vt 0.357300 0.964828
vt 0.343844 0.947705
vt 0.722862 0.995682
vt 0.774397 0.913086
vt 0.774538 0.996499
vt 0.245188 0.619355
vt 0.244922 0.702609
vt 0.193474 0.621757
vt 0.997119 0.255206
vt 0.945159 0.169383
vt 0.996875 0.171951
vt 0.975122 0.446660
vt 0.923384 0.447434
vt 0.975238 0.363248
vt 0.553346 0.932363
vt 0.539636 0.949280
vt 0.490154 0.947705
vt 0.996898 0.446691
vt 0.997013 0.363278
vt 0.945404 0.252638
vt 0.923384 0.169425
vt 0.259951 0.988610
vt 0.246495 0.971487
vt 0.259820 0.922160
vt 0.309269 0.920612
vt 0.322979 0.937529
vt 0.476796 0.898350
vt 0.490252 0.881227
vt 0.923568 0.955067
vt 0.975104 0.872471
vt 0.975245 0.955884
vt 0.245188 0.705011
vt 0.193207 0.790668
vt 0.193474 0.707413
vt 0.997119 0.533257
vt 0.945159 0.447434
vt 0.996874 0.450002
vt 0.975122 0.338618
vt 0.923499 0.255979
vt 0.975237 0.255206
vt 0.193207 0.956173
vt 0.179497 0.973090
vt 0.130015 0.971515
vt 0.996898 0.338649
vt 0.997013 0.255236
vt 0.945404 0.530689
vt 0.923384 0.447476
vt 0.936972 0.083573
vt 0.923516 0.066450
vt 0.936841 0.017123
vt 0.986290 0.015574
vt 1.000000 0.032491
vt 0.116656 0.922160
vt 0.130112 0.905037
vt 0.472250 0.881227
vt 0.193207 0.876339
vt 0.996881 0.703998
vt 0.553346 0.881227
vt 0.923651 0.535764
vt 0.646105 0.995842
vt 0.975283 0.787410
vt 0.244922 0.793084
vt 0.997022 0.703239
vt 0.343747 0.881227
vt 0.923651 0.086080
vt 0.019585 0.996102
vt 0.722721 0.912269
vt 0.193207 0.705011
vt 0.923499 0.364021
vt 0.476699 0.964828
vt 0.923629 0.252680
vt 0.246363 0.905037
vt 0.923427 0.871654
vt 0.244922 0.788266
vt 0.923384 0.339392
vt 0.116559 0.988638
vt 0.923629 0.530731
vt 0.923384 0.000000
vt 0.601872 0.715969
vt 0.344606 0.851721
vt 0.373107 0.721367
vt 0.629994 0.850883
vt 0.487388 0.881227
vn 0.9890 -0.1481 0.0007
vn 0.9890 -0.1477 0.0009
vn 0.9888 -0.1493 0.0002
vn 0.0000 -0.2598 0.9657
vn -0.9890 -0.1477 0.0009
vn -0.9890 -0.1481 0.0007
vn -0.9888 -0.1493 0.0002
vn 0.0000 -1.0000 0.0000
vn -0.0000 1.0000 -0.0051
vn -0.0004 1.0000 -0.0059
vn -0.0011 1.0000 -0.0051
vn 0.9611 -0.2264 -0.1580
vn -0.0000 -0.5110 -0.8596
vn -0.9623 -0.2231 -0.1558
vn 0.6975 -0.4348 -0.5696
vn -0.8132 -0.1886 -0.5506
vn -0.0596 0.9571 -0.2836
vn -0.0000 0.9411 -0.3381
vn 0.0054 -0.9990 -0.0439
vn 0.0008 -0.9994 -0.0346
vn 0.0044 -0.9991 -0.0419
vn -0.0000 -0.9941 -0.1081
vn 0.0003 -0.9941 -0.1086
vn 0.0011 -0.9939 -0.1100
vn 0.0011 1.0000 -0.0051
vn -0.0001 1.0000 -0.0060
vn 0.0001 1.0000 -0.0060
vn 0.0004 1.0000 -0.0059
vn 1.0000 0.0000 -0.0000
vn -0.2057 0.0000 0.9786
vn -1.0000 0.0000 0.0000
vn 0.2057 0.0000 0.9786
vn -0.0000 -0.0000 -1.0000
vn 0.9887 -0.1497 -0.0000
vn -0.9887 -0.1497 0.0000
vn 0.9834 -0.1480 -0.1045
vn -0.9834 -0.1480 -0.1045
vn 0.8132 -0.1915 -0.5495
vn -0.6938 -0.4363 -0.5729
vn -0.0000 0.9327 -0.3607
vn 0.0596 0.9571 -0.2836
vn 0.0000 -0.9995 -0.0330
vn 0.0053 -0.9931 -0.1175
vn 0.6286 -0.7777 0.0000
vn 0.6065 0.7951 -0.0000
vn -0.6286 0.7777 0.0000
vn -0.6033 -0.7975 0.0000
vn 0.0000 0.0000 1.0000
vn -0.0150 0.9999 -0.0000
vn -0.6286 -0.7777 0.0000
vn -0.6065 0.7951 -0.0000
vn 0.6286 0.7777 -0.0000
vn 0.6033 -0.7975 0.0000
vn 0.0150 0.9999 -0.0000
vn -0.0001 1.0000 -0.0050
vn -0.0006 1.0000 -0.0055
vn -0.0000 1.0000 -0.0061
vn 0.0013 1.0000 -0.0061
vn 0.0009 1.0000 -0.0060
# s off
f 1/1/1 2/2/2 3/3/3
f 2/4/4 4/5/4 5/6/4
f 4/7/5 6/8/6 5/9/7
f 7/10/8 3/11/8 5/12/8
f 8/13/9 6/14/10 9/15/11
f 10/16/12 7/17/12 11/18/12
f 12/19/13 13/20/13 14/21/13
f 15/22/14 16/23/14 17/24/14
f 14/25/15 13/26/15 11/18/15
f 16/23/16 15/22/16 12/27/16
f 15/28/17 6/14/17 8/13/17
f 12/29/18 15/28/18 10/30/18
f 11/31/19 7/10/20 16/32/21
f 14/33/22 11/34/23 18/35/24
f 19/36/9 20/37/25 8/13/9
f 21/38/26 9/15/11 6/14/10
f 22/39/27 1/40/28 20/37/25
f 22/39/27 21/38/26 4/41/26
f 23/42/29 24/43/29 9/44/29
f 25/45/30 26/46/30 20/47/30
f 26/48/31 27/49/31 20/50/31
f 19/51/32 9/52/32 24/53/32
f 27/54/33 23/55/33 21/56/33
f 7/17/34 1/1/1 3/3/3
f 3/57/4 2/4/4 5/6/4
f 6/8/6 17/24/35 5/9/7
f 17/58/8 7/10/8 5/12/8
f 19/36/9 8/13/9 9/15/11
f 1/1/36 7/17/36 10/16/36
f 18/59/13 12/19/13 14/21/13
f 6/8/37 15/22/37 17/24/37
f 13/26/38 10/16/38 11/18/38
f 18/60/39 16/23/39 12/27/39
f 10/30/40 15/28/40 8/13/40
f 1/40/41 10/30/41 8/13/41
f 13/61/18 12/29/18 10/30/18
f 7/10/20 17/58/42 16/32/21
f 11/34/23 16/62/43 18/35/24
f 20/37/25 1/40/28 8/13/9
f 4/41/26 21/38/26 6/14/10
f 2/63/27 1/40/28 22/39/27
f 2/63/27 22/39/27 4/41/26
f 21/64/29 23/42/29 9/44/29
f 19/51/30 25/45/30 20/47/30
f 27/49/31 22/65/31 20/50/31
f 25/45/32 19/51/32 24/53/32
f 22/66/33 27/54/33 21/56/33
f 28/67/44 29/68/44 30/69/44
f 31/70/45 28/71/45 32/72/45
f 33/73/46 34/74/46 35/75/46
f 36/76/47 37/77/47 33/78/47
f 32/79/48 38/80/48 37/81/48
f 31/82/8 32/83/8 37/77/8
f 39/84/49 35/75/49 30/85/49
f 29/86/33 28/87/33 39/88/33
f 28/87/33 31/89/33 36/90/33
f 38/80/48 30/91/48 35/92/48
f 40/93/44 41/94/44 42/95/44
f 43/96/45 40/97/45 44/98/45
f 45/99/46 46/100/46 47/101/46
f 48/102/47 49/103/47 46/104/47
f 50/105/48 44/106/48 49/107/48
f 43/108/8 50/109/8 49/103/8
f 51/110/49 47/101/49 42/111/49
f 41/112/33 40/113/33 51/114/33
f 40/113/33 43/115/33 48/116/33
f 44/106/48 42/117/48 47/118/48
f 52/119/50 53/120/50 54/121/50
f 55/122/51 56/123/51 52/124/51
f 57/125/52 58/126/52 59/127/52
f 60/128/53 57/129/53 61/130/53
f 56/131/48 61/132/48 62/133/48
f 55/134/8 61/130/8 56/135/8
f 63/136/54 53/137/54 58/126/54
f 54/138/33 63/139/33 52/140/33
f 52/140/33 60/141/33 55/142/33
f 62/133/48 58/143/48 53/144/48
f 64/145/50 65/146/50 66/147/50
f 67/148/51 68/149/51 64/150/51
f 69/151/52 70/152/52 71/153/52
f 72/154/53 71/155/53 73/156/53
f 74/157/48 73/158/48 68/159/48
f 67/160/8 73/156/8 74/161/8
f 75/162/54 65/163/54 70/152/54
f 66/164/33 75/165/33 64/166/33
f 64/166/33 72/167/33 67/168/33
f 68/159/48 70/169/48 65/170/48
f 38/171/44 28/67/44 30/69/44
f 28/71/45 38/172/45 32/72/45
f 39/84/46 33/73/46 35/75/46
f 37/77/47 34/173/47 33/78/47
f 38/80/48 34/174/48 37/81/48
f 36/76/8 31/82/8 37/77/8
f 29/175/49 39/84/49 30/85/49
f 28/87/33 33/176/33 39/88/33
f 33/176/33 28/87/33 36/90/33
f 34/174/48 38/80/48 35/92/48
f 44/177/44 40/93/44 42/95/44
f 50/178/45 43/96/45 44/98/45
f 51/110/46 45/99/46 47/101/46
f 45/179/47 48/102/47 46/104/47
f 44/106/48 46/180/48 49/107/48
f 48/102/8 43/108/8 49/103/8
f 41/181/49 51/110/49 42/111/49
f 40/113/33 45/182/33 51/114/33
f 45/182/33 40/113/33 48/116/33
f 46/180/48 44/106/48 47/118/48
f 62/183/50 53/120/50 52/119/50
f 52/124/51 56/123/51 62/184/51
f 63/136/52 58/126/52 57/125/52
f 61/130/53 57/129/53 59/185/53
f 62/133/48 61/132/48 59/186/48
f 60/128/8 61/130/8 55/134/8
f 54/187/54 53/137/54 63/136/54
f 52/140/33 63/139/33 57/188/33
f 57/188/33 60/141/33 52/140/33
f 59/186/48 58/143/48 62/133/48
f 68/189/50 65/146/50 64/145/50
f 74/190/51 68/149/51 67/148/51
f 75/162/52 70/152/52 69/151/52
f 69/191/53 71/155/53 72/154/53
f 68/159/48 73/158/48 71/192/48
f 72/154/8 73/156/8 67/160/8
f 66/193/54 65/163/54 75/162/54
f 64/166/33 75/165/33 69/194/33
f 69/194/33 72/167/33 64/166/33
f 71/192/48 70/169/48 68/159/48
f 27/195/55 24/196/56 23/197/57
f 26/198/58 25/199/59 27/195/55
f 25/199/59 24/196/56 27/195/55