# Blender v2.64 (sub 0) OBJ File: 'coaster.blend'
# www.blender.org
mtllib coaster_d.mtl
o Cube2
v -0.676359 -0.152527 -0.199637
v -0.676359 -0.152527 1.074517
v -0.951417 -0.152527 1.074517
v -0.951417 -0.152527 -0.199637
v -0.982336 0.169576 -0.446845
v -0.645440 0.169576 -0.446845
v -0.645440 0.169576 1.321725
v -0.982336 0.169576 1.321725
v 0.972566 0.169576 -0.446845
v 0.972566 0.169576 1.321725
v 0.937766 -0.152527 1.074517
v 0.937766 -0.152527 -0.199637
v 0.670471 -0.152527 -0.199637
v 0.670471 -0.152527 1.074517
v 0.635670 0.169576 1.321725
v -1.361373 0.719505 0.764908
v -1.361373 0.728092 -0.633877
v -1.199288 0.184370 -0.487591
v 1.362038 0.728092 -0.633877
v 1.199953 0.184370 -0.487591
v 1.362038 0.719505 0.764908
v -1.199288 0.184370 0.769526
v 0.000333 0.719505 0.907993
v 1.134261 0.720079 0.676103
v -1.195466 0.560257 1.319799
v -1.029563 0.208078 1.319799
v 0.454995 0.385176 1.807175
v -0.454330 0.385176 1.807175
v -0.417722 0.252499 1.728305
v 1.196131 0.560257 1.319799
v 1.030228 0.202536 1.319799
v 1.199953 0.184370 0.769526
v 0.418387 0.252499 1.728305
v 0.000333 0.720079 0.795254
v -1.133595 0.720079 0.676103
v 1.134261 0.727230 -0.488702
v -1.133595 0.727230 -0.488702
v 1.134261 0.344764 -0.488702
v 1.134261 0.337613 0.676103
v 0.000333 0.337613 0.795254
v -1.133595 0.337613 0.676103
v -1.133595 0.344764 -0.488702
v 0.635670 0.169576 -0.446845
v 1.072122 0.613745 -0.289139
v 0.069343 1.153519 -0.428615
v 0.069343 0.613745 -0.289139
v 0.069343 0.614460 0.563441
v 0.069343 0.614460 -0.417248
v 0.069343 0.436758 -0.417248
v 1.072122 0.614460 -0.417248
v 1.072122 0.436758 -0.417248
v 1.072122 0.614460 0.563441
v 1.072122 0.436758 0.563441
v 0.069343 0.436758 0.563441
v 1.072122 0.614460 0.563441
v 1.072122 0.614460 -0.417248
v 0.069343 0.614460 -0.417248
v 1.072122 0.614044 -0.416215
v 0.069343 1.126589 -0.555691
v 1.072122 1.126589 -0.555691
v 0.069343 0.614044 -0.416215
v 1.072122 1.153519 -0.428615
v -0.073026 0.613745 -0.289139
v -0.073027 1.153519 -0.428615
v -1.075806 0.613745 -0.289139
v -1.075806 0.614460 0.563441
v -1.075806 0.614460 -0.417248
v -1.075806 0.436758 -0.417248
v -0.073026 0.614460 -0.417248
v -0.073026 0.436758 -0.417248
v -0.073026 0.614460 0.563441
v -0.073026 0.436758 0.563441
v -1.075806 0.436758 0.563441
v -0.073026 0.614044 -0.416215
v -1.075806 0.614044 -0.416215
v -0.073027 1.126589 -0.555691
v -1.075806 1.153519 -0.428615
v -1.075806 1.126589 -0.555691
v 0.069343 0.614460 0.563441
vt 0.993813 0.570292
vt 0.993811 0.477360
vt 0.994037 0.477259
vt 0.001866 0.223358
vt 0.001910 0.197407
vt 0.929874 0.195032
vt 0.000247 0.170569
vt 0.001090 0.092723
vt 0.928272 0.077680
vt 0.929821 0.226868
vt 0.929873 0.194784
vt 0.001867 0.223593
vt 0.999400 0.092723
vt 0.000243 0.170569
vt 0.929443 0.185733
vt 0.928181 0.077680
vt 0.929352 0.185733
vt 0.000923 0.170548
vt 0.001806 0.223207
vt 0.001847 0.197752
vt 0.929637 0.226869
vt 0.994093 0.570290
vt 0.994091 0.477357
vt 0.994310 0.477259
vt 0.929690 0.194823
vt 0.001845 0.197285
vt 0.999403 0.092723
vt 0.930522 0.185733
vt 0.784757 0.267393
vt 0.784076 0.619100
vt 0.646105 0.580995
vt 0.784757 0.961781
vt 0.785808 0.619067
vt 0.923427 0.639886
vt 0.785414 0.619067
vt 0.784757 0.267354
vt 0.923384 0.580969
vt 0.343747 0.316321
vt 0.344183 0.000000
vt 0.646105 0.000422
vt 0.172495 0.387882
vt 0.001032 0.352449
vt 0.029630 0.330053
vt 0.743708 0.126825
vt 0.648647 0.264914
vt 0.653289 0.125626
vt 0.742671 0.733529
vt 0.742320 0.619100
vt 0.776709 0.623601
vt 0.825806 0.126791
vt 0.917605 0.125596
vt 0.920864 0.264883
vt 0.656573 0.019524
vt 0.690430 0.000000
vt 0.879044 0.000000
vt 0.022327 0.494357
vt 0.115960 0.619355
vt 0.323286 0.493473
vt 0.362812 0.381085
vt 0.622019 0.381417
vt 0.441753 0.439545
vt 0.546970 0.439692
vt 0.172412 0.359558
vt 0.315018 0.329214
vt 0.028771 0.037397
vt 0.314158 0.036559
vt 0.343747 0.351443
vt 0.000000 0.001007
vt 0.646105 0.911976
vt 0.646672 0.619100
vt 0.742320 0.619393
vt 0.343747 0.762046
vt 0.343472 0.904742
vt 0.247239 0.905037
vt 0.095654 0.619355
vt 0.096201 0.912235
vt 0.000000 0.619648
vt 0.247514 0.762341
vt 0.246363 0.619650
vt 0.342596 0.619355
vt 0.192332 0.619355
vt 0.193207 0.904742
vt 0.097076 0.905037
vt 0.922501 0.941807
vt 0.645669 0.316742
vt 0.777032 0.728817
vt 0.912899 0.019526
vt 0.230390 0.619018
vt 0.342715 0.000000
vt 0.741753 0.912269
vt 0.000547 0.912529
vt 0.096201 0.619650
vt 0.641718 0.674026
vt 0.344606 0.851721
vt 0.356330 0.674865
vt 0.629994 0.850883
vt 0.487388 0.881227
vt 0.000000 0.000000
vt 0.978680 0.638709
vt 0.979139 0.357968
vt 0.978683 0.357492
vt 0.980482 0.632667
vt 0.980480 0.357645
vt 0.980627 0.357492
vt 0.978473 0.357492
vt 0.978475 0.638709
vt 0.978330 0.638860
vt 0.980537 0.075976
vt 0.980534 0.350997
vt 0.980388 0.350845
vt 0.980331 0.357644
vt 0.980328 0.638860
vt 0.980183 0.638708
vt 0.978330 0.075432
vt 0.979139 0.076276
vt 0.979136 0.357492
vt 0.979598 0.357945
vt 0.980035 0.638708
vt 0.980032 0.357492
vt 0.980081 0.787815
vt 0.980183 0.640528
vt 0.980076 0.638860
vt 0.980626 0.632667
vt 0.980522 0.913995
vt 0.980629 0.913883
vt 0.978680 0.638860
vt 0.978573 0.640529
vt 0.978675 0.787815
vt 0.981238 0.638272
vt 0.981695 0.637797
vt 0.981236 0.357056
vt 0.982636 0.350085
vt 0.982634 0.075064
vt 0.982781 0.074911
vt 0.980774 0.356580
vt 0.980777 0.637797
vt 0.980631 0.637948
vt 0.982577 0.356733
vt 0.982574 0.631755
vt 0.982428 0.631602
vt 0.982277 0.356580
vt 0.982280 0.637796
vt 0.982134 0.637948
vt 0.981238 0.074520
vt 0.982048 0.075364
vt 0.982045 0.356580
vt 0.982050 0.356580
vt 0.982482 0.074911
vt 0.982433 0.780710
vt 0.982535 0.633423
vt 0.982428 0.631755
vt 0.982833 0.356580
vt 0.982729 0.637908
vt 0.982836 0.637797
vt 0.982387 0.637948
vt 0.982280 0.639616
vt 0.982382 0.786903
vt 0.994039 0.570191
vt 0.930584 0.185733
vt 0.001910 0.197399
vt 0.931755 0.077680
vt 0.000080 0.092701
vt 0.929690 0.194786
vt 0.994312 0.570191
vt 0.001807 0.223554
vt 0.929352 0.077680
vt 0.979136 0.639184
vt 0.980629 0.632514
vt 0.995104 0.357644
vt 0.995250 0.357492
vt 0.995107 0.638860
vt 0.980390 0.075823
vt 0.980185 0.357492
vt 0.978327 0.356649
vt 0.979600 0.639161
vt 0.980182 0.796873
vt 0.980519 0.632778
vt 0.978574 0.796873
vt 0.981692 0.356580
vt 0.982783 0.349933
vt 0.980629 0.356732
vt 0.982430 0.356580
vt 0.982132 0.356732
vt 0.981236 0.355737
vt 0.982485 0.356127
vt 0.982534 0.789768
vt 0.982726 0.356692
vt 0.982281 0.795961
vn 0.000000 -1.000000 -0.000000
vn 0.000000 -0.608838 -0.793294
vn 0.995424 -0.095552 -0.000000
vn 0.000000 -0.608838 0.793294
vn -0.995425 -0.095552 -0.000000
vn 0.994214 -0.107415 -0.000000
vn -0.994214 -0.107418 -0.000000
vn -0.958194 -0.286113 -0.001756
vn -0.000000 -0.259807 -0.965661
vn 0.958194 -0.286113 -0.001756
vn 0.000535 0.999987 0.005091
vn -0.867117 -0.408478 0.285051
vn 0.000000 -0.510985 0.859589
vn 0.870420 -0.403682 0.281797
vn -0.437586 -0.545608 0.714724
vn 0.572732 -0.265621 0.775515
vn 0.029838 0.958371 0.283964
vn -0.000000 0.941118 0.338080
vn -0.002688 -0.999034 0.043871
vn 0.000000 -0.994140 0.108103
vn -0.000535 0.999987 0.005091
vn 0.000126 0.999981 0.006139
vn -0.000126 0.999981 0.006139
vn 0.000000 0.999982 0.005938
vn -1.000000 0.000000 -0.000000
vn 0.104503 0.000000 -0.994525
vn 1.000000 0.000000 0.000000
vn -0.104503 0.000000 -0.994525
vn 0.000000 -0.000000 1.000000
vn -0.957063 -0.289881 -0.000000
vn 0.957063 -0.289881 -0.000000
vn -0.938305 -0.282478 0.199475
vn 0.938305 -0.282478 0.199476
vn -0.572758 -0.269813 0.774048
vn 0.433982 -0.545821 0.716756
vn 0.000000 0.932691 0.360678
vn -0.029838 0.958370 0.283964
vn 0.000000 -0.999456 0.032995
vn -0.002672 -0.993074 0.117458
vn 0.000128 0.999981 0.006139
vn -0.000128 0.999981 0.006139
vn 0.000000 0.999981 0.006139
vn -0.000645 0.999981 0.006139
vn 0.000536 0.999987 0.005097
vn -0.000000 1.000000 0.000000
vn 0.000000 0.250180 0.968199
vn 0.000000 0.000000 -1.000000
vn -0.000000 -0.262576 -0.964911
vn 0.000000 0.978274 -0.207317
vn 1.000000 0.000002 -0.000000
vn -0.995424 -0.095552 -0.000000
usemtl _NONE.001
# s off
f 1/1/1 2/2/1 3/3/1
f 1/4/2 4/5/2 5/6/2
f 2/7/3 1/8/3 6/9/3
f 7/10/4 8/11/4 2/12/4
f 4/13/5 3/14/5 8/15/5
f 9/16/6 10/17/6 11/18/6
f 12/19/2 13/20/2 9/21/2
f 12/22/1 11/23/1 14/24/1
f 10/21/4 15/25/4 14/26/4
f 13/27/7 14/7/7 15/28/7
f 16/29/8 17/30/8 18/31/8
f 17/32/9 19/33/9 20/34/9
f 19/35/10 21/36/10 20/37/10
f 22/38/1 18/39/1 20/40/1
f 23/41/11 21/42/11 24/43/11
f 25/44/12 22/45/12 26/46/12
f 27/47/13 28/48/13 29/49/13
f 30/50/14 31/51/14 32/52/14
f 29/53/15 28/54/15 26/46/15
f 31/51/16 30/50/16 27/55/16
f 30/56/17 21/42/17 23/41/17
f 27/57/18 30/56/18 25/58/18
f 26/59/19 22/38/19 31/60/19
f 29/61/20 26/59/20 33/62/20
f 34/63/21 35/64/21 23/41/21
f 36/65/22 24/43/22 21/42/22
f 37/66/23 16/67/23 35/64/23
f 37/66/24 36/65/24 19/68/24
f 38/69/25 39/70/25 24/71/25
f 40/72/26 41/73/26 35/74/26
f 41/75/27 42/76/27 35/77/27
f 34/78/28 24/79/28 39/80/28
f 42/81/29 38/82/29 36/83/29
f 22/45/30 16/29/30 18/31/30
f 18/84/9 17/32/9 20/34/9
f 21/36/31 32/52/31 20/37/31
f 32/85/1 22/38/1 20/40/1
f 34/63/11 23/41/11 24/43/11
f 16/29/32 22/45/32 25/44/32
f 33/86/13 27/47/13 29/49/13
f 21/36/33 30/50/33 32/52/33
f 28/54/34 25/44/34 26/46/34
f 33/87/35 31/51/35 27/55/35
f 25/58/36 30/56/36 23/41/36
f 16/67/37 25/58/37 23/41/37
f 28/88/18 27/57/18 25/58/18
f 22/38/38 32/85/38 31/60/38
f 26/59/39 31/60/39 33/62/39
f 35/64/21 16/67/21 23/41/21
f 19/68/40 36/65/40 21/42/40
f 17/89/41 16/67/41 37/66/41
f 17/89/24 37/66/24 19/68/24
f 36/90/25 38/69/25 24/71/25
f 34/78/26 40/72/26 35/74/26
f 42/76/27 37/91/27 35/77/27
f 40/72/28 34/78/28 39/80/28
f 37/92/29 42/81/29 36/83/29
f 42/93/42 39/94/42 38/95/42
f 41/96/43 40/97/43 42/93/43
f 40/97/44 39/94/44 42/93/44
f 6/98/45 5/98/45 8/98/45
f 9/98/45 43/98/45 15/98/45
f 44/99/46 45/100/46 46/101/46
f 47/102/25 48/103/25 49/104/25
f 48/105/47 50/106/47 51/107/47
f 50/108/27 52/109/27 53/110/27
f 52/111/29 47/112/29 54/113/29
f 55/98/45 56/98/45 57/98/45
f 52/114/45 50/115/45 48/116/45
f 58/117/48 59/118/48 60/119/48
f 61/120/25 45/121/25 59/122/25
f 59/123/49 62/124/49 60/125/49
f 60/126/27 62/127/27 58/128/27
f 63/129/46 64/130/46 65/131/46
f 66/132/25 67/133/25 68/134/25
f 67/135/47 69/136/47 70/137/47
f 69/138/27 71/139/27 72/140/27
f 71/141/29 66/142/29 73/143/29
f 71/144/45 69/145/45 67/146/45
f 74/145/48 75/147/48 76/148/48
f 75/149/25 77/150/25 78/151/25
f 78/152/49 64/153/49 76/154/49
f 76/155/50 64/156/50 74/157/50
f 4/158/1 1/1/1 3/3/1
f 6/10/2 1/4/2 5/6/2
f 7/159/3 2/7/3 6/9/3
f 8/11/4 3/160/4 2/12/4
f 5/161/51 4/13/51 8/15/51
f 12/162/6 9/16/6 11/18/6
f 13/20/2 43/163/2 9/21/2
f 13/164/1 12/22/1 14/24/1
f 11/165/4 10/21/4 14/26/4
f 43/166/7 13/27/7 15/28/7
f 7/98/45 6/98/45 8/98/45
f 10/98/45 9/98/45 15/98/45
f 62/167/46 45/100/46 44/99/46
f 54/168/25 47/102/25 49/104/25
f 49/169/47 48/170/47 51/171/47
f 51/172/27 50/108/27 53/110/27
f 53/173/29 52/111/29 54/113/29
f 79/98/45 55/98/45 57/98/45
f 47/174/45 52/114/45 48/116/45
f 61/175/48 59/118/48 58/117/48
f 46/176/25 45/121/25 61/120/25
f 45/177/49 62/124/49 59/123/49
f 58/128/27 62/127/27 44/178/27
f 65/131/46 64/130/46 77/179/46
f 73/180/25 66/132/25 68/134/25
f 68/181/47 67/135/47 70/137/47
f 70/182/27 69/138/27 72/140/27
f 72/183/29 71/141/29 73/143/29
f 66/184/45 71/144/45 67/146/45
f 76/148/48 75/147/48 78/185/48
f 65/186/25 77/150/25 75/149/25
f 77/187/49 64/153/49 78/152/49
f 74/157/50 64/156/50 63/188/50
