# Blender v2.64 (sub 0) OBJ File: 'coaster.blend'
# www.blender.org
mtllib coaster_inv.mtl
o Cube.003
v 0.441599 2.135264 1.268503
v 0.441599 1.857682 1.215177
v 0.441599 1.890532 0.478849
v 0.441599 2.213551 0.281420
v -0.440746 0.444103 0.050525
v -0.440746 2.213551 0.281420
v 0.441599 0.397942 0.299321
v 0.441599 0.444103 0.050525
v -0.440746 1.890532 0.478849
v -0.657106 -0.050567 -0.099462
v -0.657106 -0.050568 0.464941
v 0.639233 -0.050568 0.464941
v -0.440746 0.397942 0.299321
v -0.206212 0.444103 0.050525
v -0.206212 0.397942 0.299321
v -0.657106 -0.373161 -0.174207
v 0.639233 -0.373161 -0.174207
v 0.639233 -0.050567 -0.099462
v 0.639233 0.055086 -0.235303
v 0.639233 0.055085 0.243624
v -0.657106 0.055085 0.243624
v -0.657106 0.055086 -0.235303
v -0.657106 0.369954 0.300819
v 0.639233 0.369954 0.300819
v -0.440746 2.135264 1.268503
v -0.440746 1.857682 1.215177
v -0.206212 -0.113600 -0.052949
v 0.209551 0.397942 0.299321
v 0.209551 -0.113600 -0.052949
v 0.209551 -0.159761 0.195847
v -0.206212 -0.159761 0.195847
v 0.209551 0.444103 0.050525
vt 0.639164 0.262114
vt 0.636053 0.276405
vt 0.496339 0.279661
vt 0.282242 0.168580
vt 0.113307 0.258744
vt 0.114349 0.168443
vt 0.499834 0.355786
vt 0.451748 0.355126
vt 0.283119 0.273333
vt 0.450136 0.197122
vt 0.451013 0.273196
vt 0.747232 0.327763
vt 0.639922 0.327850
vt 0.639164 0.262202
vt 0.638429 0.261454
vt 0.590343 0.262114
vt 0.593838 0.185989
vt 0.687604 0.262114
vt 0.687456 0.249327
vt 0.732083 0.249290
vt 0.218589 0.287618
vt 0.281485 0.287566
vt 0.219346 0.353265
vt 0.844102 0.364093
vt 0.795667 0.353367
vt 0.843953 0.327836
vt 0.752633 0.168443
vt 0.753389 0.234091
vt 0.639922 0.234183
vt 0.747380 0.327836
vt 0.747232 0.364093
vt 0.838475 0.327763
vt 0.747989 0.327836
vt 0.747232 0.262188
vt 0.747199 0.359336
vt 0.701070 0.338419
vt 0.747232 0.327850
vt 0.754146 0.234183
vt 0.753389 0.168536
vt 0.814269 0.168486
vt 0.685326 0.338419
vt 0.639197 0.359336
vt 0.639164 0.327850
vt 0.212872 0.287566
vt 0.213628 0.353214
vt 0.114064 0.353296
vt 0.869300 0.234140
vt 0.815542 0.234183
vt 0.815026 0.189501
vt 0.283057 0.368372
vt 0.282542 0.323689
vt 0.422401 0.323575
vt 0.282542 0.273471
vt 0.450435 0.273333
vt 0.451013 0.323438
vt 0.454124 0.182733
vt 0.451013 0.168443
vt 0.838543 0.262114
vt 0.886693 0.262123
vt 0.886624 0.290847
vt 0.687604 0.249290
vt 0.687456 0.236503
vt 0.731610 0.236467
vt 0.687456 0.262075
vt 0.639407 0.262114
vt 0.639164 0.241060
vt 0.405982 0.197159
vt 0.326870 0.197223
vt 0.326538 0.168507
vt 0.236715 0.287566
vt 0.157603 0.287502
vt 0.157934 0.258781
vt 0.886693 0.327828
vt 0.838543 0.327836
vt 0.838475 0.299111
vt 0.451013 0.264760
vt 0.281201 0.258881
vt 0.237047 0.258845
vt 0.282242 0.197260
vt 0.746475 0.262114
vt 0.639164 0.171088
vt 0.732230 0.262078
vt 0.282242 0.353214
vt 0.639164 0.168536
vt 0.837718 0.262114
vt 0.815026 0.234134
vt 0.113307 0.287648
vt 0.868784 0.189457
vt 0.422917 0.368258
vt 0.283119 0.323575
vt 0.838475 0.290839
vt 0.731758 0.249254
vt 0.687214 0.241021
vt 0.405651 0.168443
vt 0.886624 0.299104
vn 1.000000 0.000000 -0.000000
vn 0.000000 0.129393 -0.991593
vn 0.000000 -0.119419 0.992844
vn 0.000000 1.000000 0.000002
vn -1.000000 0.000000 -0.000000
vn 0.000000 -0.983220 -0.182424
vn 0.000000 0.225720 -0.974192
vn 0.000000 -0.892734 0.450584
vn 0.000000 -1.000000 -0.000002
vn 0.000000 -0.178723 0.983899
vn 0.000000 0.862284 -0.506425
vn 0.000000 -0.188659 0.982043
vn 0.000000 -0.999006 -0.044569
vn 0.000000 0.996870 0.079064
vn 0.000000 -0.182423 0.983220
vn 0.000000 0.182423 -0.983220
usemtl coaster_inv
# s off
f 1/1/1 2/2/1 3/3/1
f 4/4/2 5/5/2 6/6/2
f 7/7/1 8/8/1 3/3/1
f 9/9/3 7/10/3 3/11/3
f 10/12/4 11/13/4 12/14/4
f 5/15/5 13/16/5 9/17/5
f 14/18/6 15/19/6 13/20/6
f 16/21/7 10/22/7 17/23/7
f 17/24/1 18/25/1 12/26/1
f 16/27/8 17/28/8 12/29/8
f 11/30/5 10/25/5 16/31/5
f 19/32/9 20/33/9 21/34/9
f 22/35/5 21/36/5 23/37/5
f 21/38/10 20/39/10 24/40/10
f 20/41/1 19/42/1 24/43/1
f 19/44/11 22/45/11 23/46/11
f 25/47/12 26/48/12 2/49/12
f 2/50/13 26/51/13 9/52/13
f 25/53/14 1/54/14 4/55/14
f 26/56/5 25/57/5 9/17/5
f 15/58/5 14/59/5 27/60/5
f 8/61/6 7/62/6 28/63/6
f 29/64/6 30/65/6 31/66/6
f 28/67/15 15/68/15 31/69/15
f 29/70/16 27/71/16 14/72/16
f 30/73/1 29/74/1 32/75/1
f 4/76/1 1/1/1 3/3/1
f 8/77/2 32/78/2 4/4/2
f 32/78/2 14/72/2 4/4/2
f 14/72/2 5/5/2 4/4/2
f 8/8/1 4/76/1 3/3/1
f 13/79/3 15/68/3 9/9/3
f 15/68/3 28/67/3 9/9/3
f 28/67/3 7/10/3 9/9/3
f 18/80/4 10/12/4 12/14/4
f 6/81/5 5/15/5 9/17/5
f 5/82/6 14/18/6 13/20/6
f 17/23/7 10/22/7 18/83/7
f 11/84/8 16/27/8 12/29/8
f 22/85/9 19/32/9 21/34/9
f 23/86/10 21/38/10 24/40/10
f 24/87/11 19/44/11 23/46/11
f 1/88/12 25/47/12 2/49/12
f 3/89/13 2/50/13 9/52/13
f 6/90/14 25/53/14 4/55/14
f 25/57/5 6/81/5 9/17/5
f 31/91/5 15/58/5 27/60/5
f 32/92/6 8/61/6 28/63/6
f 27/93/6 29/64/6 31/66/6
f 30/94/15 28/67/15 31/69/15
f 32/78/16 29/70/16 14/72/16
f 28/95/1 30/73/1 32/75/1
